<?xml version="1.0" standalone="no"?>
<!DOCTYPE svg PUBLIC "-//W3C//DTD SVG 20010904//EN"
 "http://www.w3.org/TR/2001/REC-SVG-20010904/DTD/svg10.dtd">
<svg version="1.0" xmlns="http://www.w3.org/2000/svg"
 width="699.000000pt" height="607.000000pt" viewBox="0 0 699.000000 607.000000"
 preserveAspectRatio="xMidYMid meet">

<g transform="translate(0.000000,607.000000) scale(0.100000,-0.100000)"
fill="#000000" stroke="none">
<path d="M1500 5585 l0 -114 38 -7 c224 -38 398 -93 473 -148 77 -57 93 -103
97 -278 l4 -148 -71 0 -71 0 0 -114 0 -114 70 -7 71 -7 -4 -1097 c-2 -1001 -4
-1104 -21 -1186 -60 -309 -191 -507 -401 -610 -105 -52 -182 -69 -315 -69
-114 -1 -117 0 -193 37 -83 41 -117 75 -117 116 1 20 19 42 81 95 95 81 205
204 259 288 198 305 42 703 -310 789 -30 8 -104 14 -165 13 -170 0 -282 -41
-387 -142 -72 -68 -118 -142 -154 -247 -27 -75 -28 -90 -29 -245 0 -130 4
-181 19 -240 44 -172 117 -299 238 -416 214 -207 498 -313 878 -330 377 -17
756 76 1058 262 l44 26 -4 -248 c-4 -206 -7 -257 -22 -296 -33 -87 -122 -154
-236 -177 -72 -14 -236 -31 -300 -31 l-50 0 0 -115 0 -116 1228 4 c1187 3
1232 4 1367 24 817 124 1375 432 1716 948 226 341 321 710 306 1180 -18 521
-153 886 -466 1259 -193 230 -546 465 -886 591 -195 73 -522 141 -785 165 -63
5 -382 10 -709 10 l-593 0 5 158 c2 86 10 173 16 193 29 93 83 134 217 168 68
17 310 61 337 61 4 0 6 51 5 113 l-3 112 -1117 3 -1118 2 0 -115z m1660 -1801
c0 -1229 0 -1225 -66 -1423 -80 -242 -220 -446 -406 -595 -45 -36 -86 -66 -90
-66 -4 0 -9 602 -10 1338 l-3 1337 -23 51 c-13 28 -38 65 -55 82 -61 58 -214
119 -349 137 l-48 6 0 120 0 119 525 0 525 0 0 -1106z m1140 821 c531 -87 908
-502 1054 -1165 49 -223 60 -349 60 -685 1 -382 -23 -609 -89 -855 -158 -586
-485 -878 -1028 -920 -363 -28 -583 77 -643 305 -11 41 -14 355 -14 1687 l0
1637 28 4 c15 2 142 5 282 5 188 2 280 -2 350 -13z"/>
</g>
</svg>
